PathFileType	4	(X/Y/Z)	C:\Users\86182\Documents\cortex\Trimmed_M4_H14.trc
DataRate	CameraRate	NumFrames	NumMarkers	Units	OrigDataRate	OrigDataStartFrame	OrigNumFrames
100.00	100.00	       84	2	mm	100.00	721	       901
Frame#	Time	gripper			box			
		X1	Y1	Z1	X2	Y2	Z2	

721	7.200	276.16776	151.12074	292.24338	278.32416	147.55139	155.75110	
722	7.210	276.16812	151.12045	292.24353	278.32730	147.54817	155.75177	
723	7.220	276.16916	151.12029	292.24313	278.33163	147.54497	155.75208	
724	7.230	276.17047	151.12025	292.24231	278.33685	147.54175	155.75191	
725	7.240	276.17175	151.12035	292.24136	278.34360	147.53802	155.75090	
726	7.250	276.17279	151.12051	292.24045	278.35242	147.53333	155.74872	
727	7.260	276.17349	151.12071	292.23972	278.36285	147.52798	155.74535	
728	7.270	276.17383	151.12090	292.23923	278.37332	147.52307	155.74135	
729	7.280	276.17380	151.12100	292.23911	278.38177	147.51985	155.73750	
730	7.290	276.17340	151.12099	292.23938	278.38696	147.51900	155.73448	
731	7.300	276.17276	151.12086	292.23993	278.38864	147.52034	155.73270	
732	7.310	276.17206	151.12067	292.24066	278.38718	147.52316	155.73225	
733	7.320	276.17142	151.12047	292.24133	278.38306	147.52667	155.73306	
734	7.330	276.17102	151.12030	292.24188	278.37701	147.53033	155.73482	
735	7.340	276.17087	151.12019	292.24213	278.36996	147.53369	155.73709	
736	7.350	276.17093	151.12015	292.24216	278.36322	147.53601	155.73953	
737	7.360	276.17111	151.12015	292.24203	278.35764	147.53673	155.74191	
738	7.370	276.17133	151.12018	292.24185	278.35373	147.53592	155.74414	
739	7.380	276.17148	151.12021	292.24170	278.35181	147.53419	155.74609	
740	7.390	276.17154	151.12021	292.24167	278.35199	147.53218	155.74757	
741	7.400	276.17160	151.12013	292.24170	278.35419	147.53018	155.74837	
742	7.410	276.17172	151.12000	292.24185	278.35840	147.52837	155.74817	
743	7.420	276.17191	151.11983	292.24197	278.36517	147.52663	155.74637	
744	7.430	276.17215	151.11972	292.24197	278.37488	147.52486	155.74257	
745	7.440	276.17242	151.11972	292.24179	278.38635	147.52333	155.73714	
746	7.450	276.17279	151.11983	292.24139	278.39731	147.52287	155.73114	
747	7.460	276.17313	151.12003	292.24091	278.40567	147.52399	155.72577	
748	7.470	276.17343	151.12022	292.24042	278.41064	147.52623	155.72182	
749	7.480	276.17365	151.12039	292.24005	278.41226	147.52861	155.71973	
750	7.490	276.17380	151.12051	292.23981	278.41092	147.53043	155.71951	
751	7.500	276.17389	151.12062	292.23959	278.40704	147.53165	155.72102	
752	7.510	276.17398	151.12073	292.23938	278.40131	147.53235	155.72383	
753	7.520	276.17410	151.12085	292.23914	278.39468	147.53244	155.72739	
754	7.530	276.17413	151.12091	292.23901	278.38809	147.53191	155.73100	
755	7.540	276.17410	151.12090	292.23904	278.38239	147.53099	155.73404	
756	7.550	276.17404	151.12085	292.23914	278.37842	147.52985	155.73587	
757	7.560	276.17404	151.12085	292.23914	278.37671	147.52846	155.73615	
758	7.570	276.17416	151.12094	292.23892	278.37708	147.52708	155.73497	
759	7.580	276.17441	151.12115	292.23846	278.37897	147.52635	155.73265	
760	7.590	276.17477	151.12144	292.23779	278.38211	147.52663	155.72948	
761	7.600	276.17514	151.12172	292.23715	278.38614	147.52788	155.72585	
762	7.610	276.17548	151.12192	292.23666	278.39059	147.52963	155.72220	
763	7.620	276.17569	151.12201	292.23639	278.39523	147.53116	155.71890	
764	7.630	276.17578	151.12201	292.23633	278.39996	147.53186	155.71625	
765	7.640	276.17572	151.12189	292.23654	278.40451	147.53165	155.71437	
766	7.650	276.17551	151.12170	292.23694	278.40842	147.53096	155.71335	
767	7.660	276.17511	151.12157	292.23740	278.41095	147.53030	155.71315	
768	7.670	276.17456	151.12157	292.23773	278.41107	147.53009	155.71399	
769	7.680	276.17377	151.12173	292.23804	278.40744	147.53067	155.71635	
770	7.690	276.17261	151.12206	292.23834	278.39944	147.53255	155.72052	
771	7.700	276.17102	151.12247	292.23877	278.38803	147.53596	155.72615	
772	7.710	276.16891	151.12297	292.23941	278.37512	147.54066	155.73245	
773	7.720	276.16641	151.12357	292.24020	278.36255	147.54619	155.73857	
774	7.730	276.16373	151.12415	292.24112	278.35175	147.55179	155.74380	
775	7.740	276.16132	151.12460	292.24207	278.34360	147.55646	155.74763	
776	7.750	276.15979	151.12483	292.24274	278.33859	147.55920	155.74985	
777	7.760	276.15976	151.12486	292.24271	278.33679	147.55937	155.75063	
778	7.770	276.16138	151.12480	292.24176	278.33755	147.55688	155.75046	
779	7.780	276.16412	151.12466	292.24017	278.33984	147.55238	155.74986	
780	7.790	276.16718	151.12442	292.23853	278.34299	147.54688	155.74907	
781	7.800	276.16980	151.12401	292.23740	278.34692	147.54114	155.74806	
782	7.810	276.17166	151.12341	292.23706	278.35196	147.53548	155.74664	
783	7.820	276.17282	151.12274	292.23724	278.35834	147.53029	155.74461	
784	7.830	276.17365	151.12216	292.23752	278.36578	147.52612	155.74193	
785	7.840	276.17432	151.12180	292.23761	278.37375	147.52330	155.73882	
786	7.850	276.17484	151.12161	292.23752	278.38132	147.52168	155.73567	
787	7.860	276.17514	151.12151	292.23749	278.38770	147.52101	155.73303	
788	7.870	276.17511	151.12138	292.23767	278.39200	147.52122	155.73141	
789	7.880	276.17474	151.12120	292.23816	278.39346	147.52255	155.73114	
790	7.890	276.17416	151.12105	292.23877	278.39188	147.52507	155.73212	
791	7.900	276.17352	151.12105	292.23920	278.38785	147.52840	155.73386	
792	7.910	276.17288	151.12131	292.23923	278.38263	147.53200	155.73575	
793	7.920	276.17233	151.12181	292.23889	278.37720	147.53551	155.73732	
794	7.930	276.17188	151.12241	292.23831	278.37198	147.53885	155.73848	
795	7.940	276.17157	151.12292	292.23782	278.36697	147.54201	155.73930	
796	7.950	276.17145	151.12311	292.23761	278.36212	147.54489	155.73987	
797	7.960	276.17157	151.12292	292.23779	278.35785	147.54732	155.74005	
798	7.970	276.17184	151.12250	292.23825	278.35471	147.54901	155.73972	
799	7.980	276.17209	151.12201	292.23877	278.35336	147.54970	155.73888	
800	7.990	276.17227	151.12158	292.23926	278.35437	147.54898	155.73756	
801	8.000	276.17224	151.12122	292.23978	278.35822	147.54643	155.73587	
802	8.010	276.17212	151.12086	292.24036	278.36450	147.54218	155.73392	
803	8.020	276.17200	151.12050	292.24097	278.37170	147.53726	155.73212	
804	8.030	276.17203	151.12016	292.24142	278.37781	147.53317	155.73103	
